<svg xmlns="http://www.w3.org/2000/svg" xmlns:xlink="http://www.w3.org/1999/xlink" width="150" zoomAndPan="magnify" viewBox="0 0 112.5 37.5" height="50" preserveAspectRatio="xMidYMid meet" version="1.0"><defs><g/></defs><g fill="#000000" fill-opacity="1"><g transform="translate(2.935547, 23.369888)"><g><path d="M 7.671875 -5.109375 L 9.890625 -5.109375 L 9.890625 -1.1875 C 9.335938 -0.800781 8.675781 -0.488281 7.90625 -0.25 C 7.132812 -0.0078125 6.398438 0.109375 5.703125 0.109375 C 4.171875 0.109375 2.894531 -0.378906 1.875 -1.359375 C 0.851562 -2.335938 0.34375 -3.554688 0.34375 -5.015625 C 0.34375 -6.472656 0.867188 -7.6875 1.921875 -8.65625 C 2.972656 -9.632812 4.289062 -10.125 5.875 -10.125 C 6.625 -10.125 7.363281 -9.988281 8.09375 -9.71875 C 8.832031 -9.457031 9.460938 -9.097656 9.984375 -8.640625 L 8.546875 -6.90625 C 8.179688 -7.238281 7.757812 -7.5 7.28125 -7.6875 C 6.800781 -7.882812 6.328125 -7.984375 5.859375 -7.984375 C 5.046875 -7.984375 4.359375 -7.695312 3.796875 -7.125 C 3.234375 -6.5625 2.953125 -5.859375 2.953125 -5.015625 C 2.953125 -4.171875 3.234375 -3.457031 3.796875 -2.875 C 4.359375 -2.300781 5.054688 -2.015625 5.890625 -2.015625 C 6.429688 -2.015625 7.023438 -2.179688 7.671875 -2.515625 Z M 7.671875 -5.109375 "/></g></g></g><g fill="#000000" fill-opacity="1"><g transform="translate(13.594756, 23.369888)"><g><path d="M 5.703125 -10.125 C 6.453125 -10.125 7.1875 -9.96875 7.90625 -9.65625 C 8.632812 -9.351562 9.25 -8.945312 9.75 -8.4375 L 8.28125 -6.6875 C 7.945312 -7.082031 7.550781 -7.394531 7.09375 -7.625 C 6.644531 -7.863281 6.195312 -7.984375 5.75 -7.984375 C 4.957031 -7.984375 4.289062 -7.703125 3.75 -7.140625 C 3.21875 -6.585938 2.953125 -5.898438 2.953125 -5.078125 C 2.953125 -4.234375 3.21875 -3.53125 3.75 -2.96875 C 4.289062 -2.40625 4.957031 -2.125 5.75 -2.125 C 6.175781 -2.125 6.613281 -2.226562 7.0625 -2.4375 C 7.519531 -2.644531 7.925781 -2.929688 8.28125 -3.296875 L 9.765625 -1.71875 C 9.222656 -1.164062 8.582031 -0.722656 7.84375 -0.390625 C 7.101562 -0.0546875 6.363281 0.109375 5.625 0.109375 C 4.113281 0.109375 2.851562 -0.378906 1.84375 -1.359375 C 0.84375 -2.347656 0.34375 -3.578125 0.34375 -5.046875 C 0.34375 -6.492188 0.851562 -7.703125 1.875 -8.671875 C 2.894531 -9.640625 4.171875 -10.125 5.703125 -10.125 Z M 5.703125 -10.125 "/></g></g></g><g fill="#000000" fill-opacity="1"><g transform="translate(23.522316, 23.369888)"><g><path d="M 8.859375 -8.03125 L 3.5625 -8.03125 L 3.5625 -6.03125 L 8.34375 -6.03125 L 8.34375 -4.03125 L 3.5625 -4.03125 L 3.5625 -2.015625 L 9.015625 -2.015625 L 9.015625 0 L 1 0 L 1 -10.046875 L 8.859375 -10.046875 Z M 8.859375 -8.03125 "/></g></g></g><g fill="#000000" fill-opacity="1"><g transform="translate(33.191642, 23.369888)"><g><path d="M 7.671875 -1.84375 L 3.28125 -1.84375 L 2.546875 0 L -0.078125 0 L 4.265625 -10.046875 L 6.890625 -10.046875 L 11.109375 0 L 8.390625 0 Z M 6.921875 -3.78125 L 5.5 -7.5 L 4.03125 -3.78125 Z M 6.921875 -3.78125 "/></g></g></g><g fill="#000000" fill-opacity="1"><g transform="translate(44.238201, 23.369888)"><g><path d="M 10.265625 0 L 8.015625 0 L 3.40625 -6.1875 L 3.40625 0 L 1 0 L 1 -10.046875 L 3.25 -10.046875 L 7.890625 -3.84375 L 7.890625 -10.046875 L 10.265625 -10.046875 Z M 10.265625 0 "/></g></g></g><g fill="#000000" fill-opacity="1"><g transform="translate(55.5143, 23.369888)"><g><path d="M 4.859375 -10.15625 C 6.359375 -10.15625 7.679688 -9.78125 8.828125 -9.03125 L 7.859375 -7.046875 C 7.335938 -7.347656 6.773438 -7.597656 6.171875 -7.796875 C 5.566406 -7.992188 5.054688 -8.09375 4.640625 -8.09375 C 3.910156 -8.09375 3.546875 -7.847656 3.546875 -7.359375 C 3.546875 -7.046875 3.726562 -6.789062 4.09375 -6.59375 C 4.457031 -6.40625 4.898438 -6.238281 5.421875 -6.09375 C 5.941406 -5.957031 6.460938 -5.789062 6.984375 -5.59375 C 7.503906 -5.40625 7.941406 -5.085938 8.296875 -4.640625 C 8.660156 -4.203125 8.84375 -3.648438 8.84375 -2.984375 C 8.84375 -2.015625 8.460938 -1.257812 7.703125 -0.71875 C 6.953125 -0.175781 5.992188 0.09375 4.828125 0.09375 C 3.992188 0.09375 3.171875 -0.0507812 2.359375 -0.34375 C 1.546875 -0.632812 0.84375 -1.023438 0.25 -1.515625 L 1.234375 -3.484375 C 1.742188 -3.046875 2.34375 -2.6875 3.03125 -2.40625 C 3.71875 -2.125 4.328125 -1.984375 4.859375 -1.984375 C 5.273438 -1.984375 5.597656 -2.054688 5.828125 -2.203125 C 6.054688 -2.347656 6.171875 -2.566406 6.171875 -2.859375 C 6.171875 -3.128906 6.035156 -3.359375 5.765625 -3.546875 C 5.503906 -3.734375 5.175781 -3.875 4.78125 -3.96875 C 4.394531 -4.0625 3.972656 -4.179688 3.515625 -4.328125 C 3.054688 -4.484375 2.628906 -4.648438 2.234375 -4.828125 C 1.847656 -5.015625 1.519531 -5.304688 1.25 -5.703125 C 0.988281 -6.097656 0.859375 -6.570312 0.859375 -7.125 C 0.859375 -8.039062 1.222656 -8.773438 1.953125 -9.328125 C 2.691406 -9.878906 3.660156 -10.15625 4.859375 -10.15625 Z M 4.859375 -10.15625 "/></g></g></g><g fill="#000000" fill-opacity="1"><g transform="translate(64.753243, 23.369888)"><g><path d="M 12.296875 0 L 9.671875 0 L 7.796875 -6.9375 L 5.90625 0 L 3.265625 0 L -0.015625 -10.046875 L 2.71875 -10.046875 L 4.671875 -2.65625 L 6.59375 -10.046875 L 9.09375 -10.046875 L 11.0625 -2.65625 L 13 -10.046875 L 15.609375 -10.046875 Z M 12.296875 0 "/></g></g></g><g fill="#000000" fill-opacity="1"><g transform="translate(80.261463, 23.369888)"><g><path d="M 8.859375 -8.03125 L 3.5625 -8.03125 L 3.5625 -6.03125 L 8.34375 -6.03125 L 8.34375 -4.03125 L 3.5625 -4.03125 L 3.5625 -2.015625 L 9.015625 -2.015625 L 9.015625 0 L 1 0 L 1 -10.046875 L 8.859375 -10.046875 Z M 8.859375 -8.03125 "/></g></g></g><g fill="#000000" fill-opacity="1"><g transform="translate(89.930789, 23.369888)"><g><path d="M 7.0625 0 L 5.5625 -2.828125 L 3.5625 -2.828125 L 3.5625 0 L 1 0 L 1 -10.046875 L 5.5 -10.046875 C 6.820312 -10.046875 7.847656 -9.738281 8.578125 -9.125 C 9.304688 -8.519531 9.671875 -7.660156 9.671875 -6.546875 C 9.671875 -4.992188 9.0625 -3.914062 7.84375 -3.3125 L 9.953125 0 Z M 3.5625 -4.828125 L 5.5 -4.828125 C 6.050781 -4.828125 6.476562 -4.96875 6.78125 -5.25 C 7.09375 -5.53125 7.25 -5.929688 7.25 -6.453125 C 7.25 -6.972656 7.09375 -7.363281 6.78125 -7.625 C 6.476562 -7.894531 6.050781 -8.03125 5.5 -8.03125 L 3.5625 -8.03125 Z M 3.5625 -4.828125 "/></g></g></g><g fill="#000000" fill-opacity="1"><g transform="translate(100.317426, 23.369888)"><g><path d="M 4.859375 -10.15625 C 6.359375 -10.15625 7.679688 -9.78125 8.828125 -9.03125 L 7.859375 -7.046875 C 7.335938 -7.347656 6.773438 -7.597656 6.171875 -7.796875 C 5.566406 -7.992188 5.054688 -8.09375 4.640625 -8.09375 C 3.910156 -8.09375 3.546875 -7.847656 3.546875 -7.359375 C 3.546875 -7.046875 3.726562 -6.789062 4.09375 -6.59375 C 4.457031 -6.40625 4.898438 -6.238281 5.421875 -6.09375 C 5.941406 -5.957031 6.460938 -5.789062 6.984375 -5.59375 C 7.503906 -5.40625 7.941406 -5.085938 8.296875 -4.640625 C 8.660156 -4.203125 8.84375 -3.648438 8.84375 -2.984375 C 8.84375 -2.015625 8.460938 -1.257812 7.703125 -0.71875 C 6.953125 -0.175781 5.992188 0.09375 4.828125 0.09375 C 3.992188 0.09375 3.171875 -0.0507812 2.359375 -0.34375 C 1.546875 -0.632812 0.84375 -1.023438 0.25 -1.515625 L 1.234375 -3.484375 C 1.742188 -3.046875 2.34375 -2.6875 3.03125 -2.40625 C 3.71875 -2.125 4.328125 -1.984375 4.859375 -1.984375 C 5.273438 -1.984375 5.597656 -2.054688 5.828125 -2.203125 C 6.054688 -2.347656 6.171875 -2.566406 6.171875 -2.859375 C 6.171875 -3.128906 6.035156 -3.359375 5.765625 -3.546875 C 5.503906 -3.734375 5.175781 -3.875 4.78125 -3.96875 C 4.394531 -4.0625 3.972656 -4.179688 3.515625 -4.328125 C 3.054688 -4.484375 2.628906 -4.648438 2.234375 -4.828125 C 1.847656 -5.015625 1.519531 -5.304688 1.25 -5.703125 C 0.988281 -6.097656 0.859375 -6.570312 0.859375 -7.125 C 0.859375 -8.039062 1.222656 -8.773438 1.953125 -9.328125 C 2.691406 -9.878906 3.660156 -10.15625 4.859375 -10.15625 Z M 4.859375 -10.15625 "/></g></g></g></svg>